<?xml version="1.0" encoding="UTF-8" standalone="no"?><!DOCTYPE svg PUBLIC "-//W3C//DTD SVG 1.1//EN" "http://www.w3.org/Graphics/SVG/1.1/DTD/svg11.dtd"><!-- Generated by graphviz version 2.40.1 (20161225.0304)
 --><!-- Title: Cluster5 Pages: 1 --><svg xmlns="http://www.w3.org/2000/svg" xmlns:xlink="http://www.w3.org/1999/xlink" width="146pt" height="1580pt" viewBox="0.00 0.00 146.02 1580.09">
<g id="graph0" class="graph" transform="scale(1 1) rotate(0) translate(4 1576.0901)">
<title>Cluster5</title>
<polygon fill="#ffffff" stroke="transparent" points="-4,4 -4,-1576.0901 142.02,-1576.0901 142.02,4 -4,4"/>
<!-- FUN30 -->
<g id="node1" class="node">
<title>FUN30</title>
<ellipse fill="#ffb6c1" stroke="#ffb6c1" cx="69.02" cy="-1532.0856" rx="40.0089" ry="40.0089"/>
<text text-anchor="middle" x="69.02" y="-1527.8856" font-family="Times,serif" font-size="14.00" fill="#000000">FUN30</text>
</g>
<!-- DRS2 -->
<g id="node2" class="node">
<title>DRS2</title>
<ellipse fill="#ffb6c1" stroke="#ffb6c1" cx="69.02" cy="-1421.4363" rx="34.7903" ry="34.7903"/>
<text text-anchor="middle" x="69.02" y="-1417.2363" font-family="Times,serif" font-size="14.00" fill="#000000">DRS2</text>
</g>
<!-- FUN30&#45;&#45;DRS2 -->
<g id="edge1" class="edge">
<title>FUN30--DRS2</title>
<path fill="none" stroke="#000000" d="M62.5173,-1492.4512C62.1285,-1480.4211 62.1982,-1467.3119 62.7264,-1455.6686"/>
</g>
<!-- FUN30&#45;&#45;DRS2 -->
<g id="edge15" class="edge">
<title>FUN30--DRS2</title>
<path fill="none" stroke="#000000" d="M75.5227,-1492.4512C75.9116,-1480.4211 75.8419,-1467.3119 75.3136,-1455.6686"/>
</g>
<!-- MYO4 -->
<g id="node3" class="node">
<title>MYO4</title>
<ellipse fill="#ffb6c1" stroke="#ffb6c1" cx="69.02" cy="-1312.3998" rx="38.2838" ry="38.2838"/>
<text text-anchor="middle" x="69.02" y="-1308.1998" font-family="Times,serif" font-size="14.00" fill="#000000">MYO4</text>
</g>
<!-- DRS2&#45;&#45;MYO4 -->
<g id="edge2" class="edge">
<title>DRS2--MYO4</title>
<path fill="none" stroke="#000000" d="M62.7052,-1387.2356C62.1791,-1375.4941 62.13,-1362.2854 62.5579,-1350.2701"/>
</g>
<!-- DRS2&#45;&#45;MYO4 -->
<g id="edge16" class="edge">
<title>DRS2--MYO4</title>
<path fill="none" stroke="#000000" d="M75.3349,-1387.2356C75.8609,-1375.4941 75.91,-1362.2854 75.4822,-1350.2701"/>
</g>
<!-- SSA3 -->
<g id="node4" class="node">
<title>SSA3</title>
<ellipse fill="#ffb6c1" stroke="#ffb6c1" cx="69.02" cy="-1204.4351" rx="33.646" ry="33.646"/>
<text text-anchor="middle" x="69.02" y="-1200.2351" font-family="Times,serif" font-size="14.00" fill="#000000">SSA3</text>
</g>
<!-- MYO4&#45;&#45;SSA3 -->
<g id="edge3" class="edge">
<title>MYO4--SSA3</title>
<path fill="none" stroke="#000000" d="M62.5379,-1274.3355C62.1222,-1262.3148 62.1903,-1249.1377 62.7424,-1237.4963"/>
</g>
<!-- MYO4&#45;&#45;SSA3 -->
<g id="edge17" class="edge">
<title>MYO4--SSA3</title>
<path fill="none" stroke="#000000" d="M75.5021,-1274.3355C75.9179,-1262.3148 75.8497,-1249.1377 75.2976,-1237.4963"/>
</g>
<!-- RDH54 -->
<g id="node5" class="node">
<title>RDH54</title>
<ellipse fill="#ffb6c1" stroke="#ffb6c1" cx="69.02" cy="-1093.7858" rx="41.1529" ry="41.1529"/>
<text text-anchor="middle" x="69.02" y="-1089.5858" font-family="Times,serif" font-size="14.00" fill="#000000">RDH54</text>
</g>
<!-- SSA3&#45;&#45;RDH54 -->
<g id="edge4" class="edge">
<title>SSA3--RDH54</title>
<path fill="none" stroke="#000000" d="M62.7747,-1171.2367C62.2177,-1159.6511 62.1218,-1146.5156 62.4869,-1134.396"/>
</g>
<!-- SSA3&#45;&#45;RDH54 -->
<g id="edge18" class="edge">
<title>SSA3--RDH54</title>
<path fill="none" stroke="#000000" d="M75.2653,-1171.2367C75.8223,-1159.6511 75.9183,-1146.5156 75.5532,-1134.396"/>
</g>
<!-- DBP10 -->
<g id="node6" class="node">
<title>DBP10</title>
<ellipse fill="#ffb6c1" stroke="#ffb6c1" cx="69.02" cy="-977.2361" rx="39.4466" ry="39.4466"/>
<text text-anchor="middle" x="69.02" y="-973.0361" font-family="Times,serif" font-size="14.00" fill="#000000">DBP10</text>
</g>
<!-- RDH54&#45;&#45;DBP10 -->
<g id="edge5" class="edge">
<title>RDH54--DBP10</title>
<path fill="none" stroke="#000000" d="M69.02,-1052.6948C69.02,-1041.029 69.02,-1028.3543 69.02,-1016.7822"/>
</g>
<!-- TCP1 -->
<g id="node7" class="node">
<title>TCP1</title>
<ellipse fill="#ffb6c1" stroke="#ffb6c1" cx="69.02" cy="-868.1899" rx="33.646" ry="33.646"/>
<text text-anchor="middle" x="69.02" y="-863.9899" font-family="Times,serif" font-size="14.00" fill="#000000">TCP1</text>
</g>
<!-- DBP10&#45;&#45;TCP1 -->
<g id="edge6" class="edge">
<title>DBP10--TCP1</title>
<path fill="none" stroke="#000000" d="M69.02,-937.5595C69.02,-925.8673 69.02,-913.1892 69.02,-901.9088"/>
</g>
<!-- MET32 -->
<g id="node8" class="node">
<title>MET32</title>
<ellipse fill="#ffb6c1" stroke="#ffb6c1" cx="68.02" cy="-757.5406" rx="41.1529" ry="41.1529"/>
<text text-anchor="middle" x="68.02" y="-753.3406" font-family="Times,serif" font-size="14.00" fill="#000000">MET32</text>
</g>
<!-- TCP1&#45;&#45;MET32 -->
<g id="edge7" class="edge">
<title>TCP1--MET32</title>
<path fill="none" stroke="#000000" d="M68.7146,-834.3902C68.6135,-823.2046 68.4998,-810.6283 68.3942,-798.939"/>
</g>
<!-- YRA1 -->
<g id="node9" class="node">
<title>YRA1</title>
<ellipse fill="#ffb6c1" stroke="#ffb6c1" cx="67.02" cy="-644.2164" rx="36.4975" ry="36.4975"/>
<text text-anchor="middle" x="67.02" y="-640.0164" font-family="Times,serif" font-size="14.00" fill="#000000">YRA1</text>
</g>
<!-- MET32&#45;&#45;YRA1 -->
<g id="edge8" class="edge">
<title>MET32--YRA1</title>
<path fill="none" stroke="#000000" d="M67.6562,-716.3074C67.5534,-704.6628 67.4424,-692.0772 67.3422,-680.7308"/>
</g>
<!-- PAC2 -->
<g id="node10" class="node">
<title>PAC2</title>
<ellipse fill="#ffb6c1" stroke="#ffb6c1" cx="64.02" cy="-537.3236" rx="34.7903" ry="34.7903"/>
<text text-anchor="middle" x="64.02" y="-533.1236" font-family="Times,serif" font-size="14.00" fill="#000000">PAC2</text>
</g>
<!-- YRA1&#45;&#45;PAC2 -->
<g id="edge9" class="edge">
<title>YRA1--PAC2</title>
<path fill="none" stroke="#000000" d="M65.996,-607.7289C65.6735,-596.2376 65.3182,-583.5795 64.9989,-572.203"/>
</g>
<!-- CKB1 -->
<g id="node11" class="node">
<title>CKB1</title>
<ellipse fill="#ffb6c1" stroke="#ffb6c1" cx="59.02" cy="-430.962" rx="35.9348" ry="35.9348"/>
<text text-anchor="middle" x="59.02" y="-426.762" font-family="Times,serif" font-size="14.00" fill="#000000">CKB1</text>
</g>
<!-- PAC2&#45;&#45;CKB1 -->
<g id="edge10" class="edge">
<title>PAC2--CKB1</title>
<path fill="none" stroke="#000000" d="M62.3828,-502.4969C61.8474,-491.1069 61.2518,-478.4366 60.7124,-466.9619"/>
</g>
<!-- YGR081C -->
<g id="node12" class="node">
<title>YGR081C</title>
<ellipse fill="#ffb6c1" stroke="#ffb6c1" cx="57.02" cy="-306.9002" rx="52.1906" ry="52.1906"/>
<text text-anchor="middle" x="57.02" y="-302.7002" font-family="Times,serif" font-size="14.00" fill="#000000">YGR081C</text>
</g>
<!-- CKB1&#45;&#45;YGR081C -->
<g id="edge11" class="edge">
<title>CKB1--YGR081C</title>
<path fill="none" stroke="#000000" d="M58.4415,-395.0782C58.2616,-383.9144 58.0593,-371.3676 57.865,-359.3169"/>
</g>
<!-- YGR111W -->
<g id="node13" class="node">
<title>YGR111W</title>
<ellipse fill="#ffb6c1" stroke="#ffb6c1" cx="55.02" cy="-163.5351" rx="55.0401" ry="55.0401"/>
<text text-anchor="middle" x="55.02" y="-159.3351" font-family="Times,serif" font-size="14.00" fill="#000000">YGR111W</text>
</g>
<!-- YGR081C&#45;&#45;YGR111W -->
<g id="edge12" class="edge">
<title>YGR081C--YGR111W</title>
<path fill="none" stroke="#000000" d="M56.2867,-254.3304C56.1261,-242.8227 55.9557,-230.606 55.7936,-218.9895"/>
</g>
<!-- MSC7 -->
<g id="node14" class="node">
<title>MSC7</title>
<ellipse fill="#ffb6c1" stroke="#ffb6c1" cx="96.02" cy="-36.2576" rx="36.0167" ry="36.0167"/>
<text text-anchor="middle" x="96.02" y="-32.0576" font-family="Times,serif" font-size="14.00" fill="#000000">MSC7</text>
</g>
<!-- YGR111W&#45;&#45;MSC7 -->
<g id="edge13" class="edge">
<title>YGR111W--MSC7</title>
<path fill="none" stroke="#000000" d="M71.933,-111.0316C76.3006,-97.4733 80.8924,-83.2189 84.8817,-70.8345"/>
</g>
<!-- MSC7&#45;&#45;FUN30 -->
<g id="edge14" class="edge">
<title>MSC7--FUN30</title>
<path fill="none" stroke="#000000" d="M108.5336,-70.4111C112.4571,-82.3239 116.4338,-95.8754 119.02,-108.5151 136.7754,-195.2919 138.02,-218.3256 138.02,-306.9002 138.02,-1312.3998 138.02,-1312.3998 138.02,-1312.3998 138.02,-1377.2176 135.1558,-1395.1603 113.02,-1456.0812 107.6569,-1470.8413 99.4867,-1486.0277 91.6364,-1498.9081"/>
</g>
</g>
</svg>