<?xml version="1.0" encoding="UTF-8" standalone="no"?><!DOCTYPE svg PUBLIC "-//W3C//DTD SVG 1.1//EN" "http://www.w3.org/Graphics/SVG/1.1/DTD/svg11.dtd"><!-- Generated by graphviz version 2.40.1 (20161225.0304)
 --><!-- Title: Cluster1 Pages: 1 --><svg xmlns="http://www.w3.org/2000/svg" xmlns:xlink="http://www.w3.org/1999/xlink" width="117pt" height="1367pt" viewBox="0.00 0.00 116.98 1367.35">
<g id="graph0" class="graph" transform="scale(1 1) rotate(0) translate(4 1363.3456)">
<title>Cluster1</title>
<polygon fill="#ffffff" stroke="transparent" points="-4,4 -4,-1363.3456 112.9778,-1363.3456 112.9778,4 -4,4"/>
<!-- ERP2 -->
<g id="node1" class="node">
<title>ERP2</title>
<ellipse fill="#add8e6" stroke="#add8e6" cx="54.4889" cy="-1325.7727" rx="33.646" ry="33.646"/>
<text text-anchor="middle" x="54.4889" y="-1321.5727" font-family="Times,serif" font-size="14.00" fill="#000000">ERP2</text>
</g>
<!-- SSA3 -->
<g id="node2" class="node">
<title>SSA3</title>
<ellipse fill="#add8e6" stroke="#add8e6" cx="54.4889" cy="-1222.6269" rx="33.646" ry="33.646"/>
<text text-anchor="middle" x="54.4889" y="-1218.4269" font-family="Times,serif" font-size="14.00" fill="#000000">SSA3</text>
</g>
<!-- ERP2&#45;&#45;SSA3 -->
<g id="edge1" class="edge">
<title>ERP2--SSA3</title>
<path fill="none" stroke="#000000" d="M54.4889,-1291.9989C54.4889,-1280.6008 54.4889,-1267.8805 54.4889,-1256.4765"/>
</g>
<!-- HHT1 -->
<g id="node3" class="node">
<title>HHT1</title>
<ellipse fill="#add8e6" stroke="#add8e6" cx="54.4889" cy="-1117.3468" rx="35.9154" ry="35.9154"/>
<text text-anchor="middle" x="54.4889" y="-1113.1468" font-family="Times,serif" font-size="14.00" fill="#000000">HHT1</text>
</g>
<!-- SSA3&#45;&#45;HHT1 -->
<g id="edge2" class="edge">
<title>SSA3--HHT1</title>
<path fill="none" stroke="#000000" d="M54.4889,-1189.0261C54.4889,-1177.5924 54.4889,-1164.7736 54.4889,-1153.1723"/>
</g>
<!-- YBR159W -->
<g id="node4" class="node">
<title>YBR159W</title>
<ellipse fill="#add8e6" stroke="#add8e6" cx="54.4889" cy="-991.1508" rx="54.4778" ry="54.4778"/>
<text text-anchor="middle" x="54.4889" y="-986.9508" font-family="Times,serif" font-size="14.00" fill="#000000">YBR159W</text>
</g>
<!-- HHT1&#45;&#45;YBR159W -->
<g id="edge3" class="edge">
<title>HHT1--YBR159W</title>
<path fill="none" stroke="#000000" d="M54.4889,-1081.5217C54.4889,-1070.4456 54.4889,-1057.9811 54.4889,-1045.9287"/>
</g>
<!-- TKL2 -->
<g id="node5" class="node">
<title>TKL2</title>
<ellipse fill="#add8e6" stroke="#add8e6" cx="54.4889" cy="-866.0268" rx="34.7709" ry="34.7709"/>
<text text-anchor="middle" x="54.4889" y="-861.8268" font-family="Times,serif" font-size="14.00" fill="#000000">TKL2</text>
</g>
<!-- YBR159W&#45;&#45;TKL2 -->
<g id="edge4" class="edge">
<title>YBR159W--TKL2</title>
<path fill="none" stroke="#000000" d="M54.4889,-936.6336C54.4889,-924.516 54.4889,-911.9891 54.4889,-900.912"/>
</g>
<!-- YPL146C -->
<g id="node6" class="node">
<title>YPL146C</title>
<ellipse fill="#add8e6" stroke="#add8e6" cx="54.4889" cy="-745.1904" rx="50.4032" ry="50.4032"/>
<text text-anchor="middle" x="54.4889" y="-740.9904" font-family="Times,serif" font-size="14.00" fill="#000000">YPL146C</text>
</g>
<!-- TKL2&#45;&#45;YPL146C -->
<g id="edge5" class="edge">
<title>TKL2--YPL146C</title>
<path fill="none" stroke="#000000" d="M54.4889,-831.0759C54.4889,-820.0629 54.4889,-807.6681 54.4889,-795.7931"/>
</g>
<!-- YPL216W -->
<g id="node7" class="node">
<title>YPL216W</title>
<ellipse fill="#add8e6" stroke="#add8e6" cx="54.4889" cy="-606.113" rx="52.7527" ry="52.7527"/>
<text text-anchor="middle" x="54.4889" y="-601.913" font-family="Times,serif" font-size="14.00" fill="#000000">YPL216W</text>
</g>
<!-- YPL146C&#45;&#45;YPL216W -->
<g id="edge6" class="edge">
<title>YPL146C--YPL216W</title>
<path fill="none" stroke="#000000" d="M54.4889,-694.9802C54.4889,-683.3092 54.4889,-670.8491 54.4889,-659.0641"/>
</g>
<!-- STM1 -->
<g id="node8" class="node">
<title>STM1</title>
<ellipse fill="#add8e6" stroke="#add8e6" cx="54.4889" cy="-481.52" rx="35.9348" ry="35.9348"/>
<text text-anchor="middle" x="54.4889" y="-477.32" font-family="Times,serif" font-size="14.00" fill="#000000">STM1</text>
</g>
<!-- YPL216W&#45;&#45;STM1 -->
<g id="edge7" class="edge">
<title>YPL216W--STM1</title>
<path fill="none" stroke="#000000" d="M54.4889,-552.9129C54.4889,-540.8753 54.4889,-528.3747 54.4889,-517.2612"/>
</g>
<!-- VPS34 -->
<g id="node9" class="node">
<title>VPS34</title>
<ellipse fill="#add8e6" stroke="#add8e6" cx="54.4889" cy="-371.4019" rx="38.303" ry="38.303"/>
<text text-anchor="middle" x="54.4889" y="-367.2019" font-family="Times,serif" font-size="14.00" fill="#000000">VPS34</text>
</g>
<!-- STM1&#45;&#45;VPS34 -->
<g id="edge8" class="edge">
<title>STM1--VPS34</title>
<path fill="none" stroke="#000000" d="M54.4889,-445.7678C54.4889,-434.3381 54.4889,-421.6375 54.4889,-410.0137"/>
</g>
<!-- TIF4632 -->
<g id="node10" class="node">
<title>TIF4632</title>
<ellipse fill="#add8e6" stroke="#add8e6" cx="54.4889" cy="-252.1675" rx="44.6665" ry="44.6665"/>
<text text-anchor="middle" x="54.4889" y="-247.9675" font-family="Times,serif" font-size="14.00" fill="#000000">TIF4632</text>
</g>
<!-- VPS34&#45;&#45;TIF4632 -->
<g id="edge9" class="edge">
<title>VPS34--TIF4632</title>
<path fill="none" stroke="#000000" d="M54.4889,-332.6899C54.4889,-321.402 54.4889,-308.9693 54.4889,-297.3206"/>
</g>
<!-- ICL1 -->
<g id="node11" class="node">
<title>ICL1</title>
<ellipse fill="#add8e6" stroke="#add8e6" cx="54.4889" cy="-139.9152" rx="31.339" ry="31.339"/>
<text text-anchor="middle" x="54.4889" y="-135.7152" font-family="Times,serif" font-size="14.00" fill="#000000">ICL1</text>
</g>
<!-- TIF4632&#45;&#45;ICL1 -->
<g id="edge10" class="edge">
<title>TIF4632--ICL1</title>
<path fill="none" stroke="#000000" d="M54.4889,-207.157C54.4889,-195.202 54.4889,-182.5461 54.4889,-171.4778"/>
</g>
<!-- YRA1 -->
<g id="node12" class="node">
<title>YRA1</title>
<ellipse fill="#add8e6" stroke="#add8e6" cx="54.4889" cy="-36.2479" rx="36.4975" ry="36.4975"/>
<text text-anchor="middle" x="54.4889" y="-32.0479" font-family="Times,serif" font-size="14.00" fill="#000000">YRA1</text>
</g>
<!-- ICL1&#45;&#45;YRA1 -->
<g id="edge11" class="edge">
<title>ICL1--YRA1</title>
<path fill="none" stroke="#000000" d="M54.4889,-108.2483C54.4889,-97.054 54.4889,-84.3729 54.4889,-72.8062"/>
</g>
</g>
</svg>