<?xml version="1.0" encoding="UTF-8" standalone="no"?><!DOCTYPE svg PUBLIC "-//W3C//DTD SVG 1.1//EN" "http://www.w3.org/Graphics/SVG/1.1/DTD/svg11.dtd"><!-- Generated by graphviz version 2.40.1 (20161225.0304)
 --><!-- Title: Cluster2 Pages: 1 --><svg xmlns="http://www.w3.org/2000/svg" xmlns:xlink="http://www.w3.org/1999/xlink" width="142pt" height="1651pt" viewBox="0.00 0.00 142.42 1651.02">
<g id="graph0" class="graph" transform="scale(1 1) rotate(0) translate(4 1647.0203)">
<title>Cluster2</title>
<polygon fill="#ffffff" stroke="transparent" points="-4,4 -4,-1647.0203 138.417,-1647.0203 138.417,4 -4,4"/>
<!-- FUN36 -->
<g id="node1" class="node">
<title>FUN36</title>
<ellipse fill="#000000" stroke="#000000" cx="67.417" cy="-1603.0159" rx="40.0089" ry="40.0089"/>
<text text-anchor="middle" x="67.417" y="-1598.8159" font-family="Times,serif" font-size="14.00" fill="#000000">FUN36</text>
</g>
<!-- HTA2 -->
<g id="node2" class="node">
<title>HTA2</title>
<ellipse fill="#000000" stroke="#000000" cx="67.417" cy="-1491.3043" rx="35.9154" ry="35.9154"/>
<text text-anchor="middle" x="67.417" y="-1487.1043" font-family="Times,serif" font-size="14.00" fill="#000000">HTA2</text>
</g>
<!-- FUN36&#45;&#45;HTA2 -->
<g id="edge1" class="edge">
<title>FUN36--HTA2</title>
<path fill="none" stroke="#000000" d="M60.9245,-1563.316C60.5346,-1551.4005 60.5875,-1538.4118 61.083,-1526.7873"/>
</g>
<!-- FUN36&#45;&#45;HTA2 -->
<g id="edge16" class="edge">
<title>FUN36--HTA2</title>
<path fill="none" stroke="#000000" d="M73.9095,-1563.316C74.2993,-1551.4005 74.2465,-1538.4118 73.751,-1526.7873"/>
</g>
<!-- PTC3 -->
<g id="node3" class="node">
<title>PTC3</title>
<ellipse fill="#000000" stroke="#000000" cx="67.417" cy="-1386.0243" rx="33.646" ry="33.646"/>
<text text-anchor="middle" x="67.417" y="-1381.8243" font-family="Times,serif" font-size="14.00" fill="#000000">PTC3</text>
</g>
<!-- HTA2&#45;&#45;PTC3 -->
<g id="edge2" class="edge">
<title>HTA2--PTC3</title>
<path fill="none" stroke="#000000" d="M61.0016,-1455.9547C60.5279,-1444.127 60.5571,-1430.989 61.0894,-1419.3232"/>
</g>
<!-- HTA2&#45;&#45;PTC3 -->
<g id="edge17" class="edge">
<title>HTA2--PTC3</title>
<path fill="none" stroke="#000000" d="M73.8323,-1455.9547C74.3061,-1444.127 74.2768,-1430.989 73.7445,-1419.3232"/>
</g>
<!-- HIS7 -->
<g id="node4" class="node">
<title>HIS7</title>
<ellipse fill="#000000" stroke="#000000" cx="67.417" cy="-1285.032" rx="31.339" ry="31.339"/>
<text text-anchor="middle" x="67.417" y="-1280.832" font-family="Times,serif" font-size="14.00" fill="#000000">HIS7</text>
</g>
<!-- PTC3&#45;&#45;HIS7 -->
<g id="edge3" class="edge">
<title>PTC3--HIS7</title>
<path fill="none" stroke="#000000" d="M61.0378,-1352.9556C60.514,-1341.1052 60.5451,-1327.7951 61.1313,-1316.1183"/>
</g>
<!-- PTC3&#45;&#45;HIS7 -->
<g id="edge18" class="edge">
<title>PTC3--HIS7</title>
<path fill="none" stroke="#000000" d="M73.7962,-1352.9556C74.32,-1341.1052 74.2888,-1327.7951 73.7027,-1316.1183"/>
</g>
<!-- HMO1 -->
<g id="node5" class="node">
<title>HMO1</title>
<ellipse fill="#000000" stroke="#000000" cx="67.417" cy="-1179.2208" rx="38.2838" ry="38.2838"/>
<text text-anchor="middle" x="67.417" y="-1175.0208" font-family="Times,serif" font-size="14.00" fill="#000000">HMO1</text>
</g>
<!-- HIS7&#45;&#45;HMO1 -->
<g id="edge4" class="edge">
<title>HIS7--HMO1</title>
<path fill="none" stroke="#000000" d="M61.2158,-1254.1426C60.6039,-1242.5527 60.5036,-1229.2472 60.9152,-1217.0954"/>
</g>
<!-- HIS7&#45;&#45;HMO1 -->
<g id="edge19" class="edge">
<title>HIS7--HMO1</title>
<path fill="none" stroke="#000000" d="M73.6181,-1254.1426C74.2301,-1242.5527 74.3303,-1229.2472 73.9188,-1217.0954"/>
</g>
<!-- RVB1 -->
<g id="node6" class="node">
<title>RVB1</title>
<ellipse fill="#000000" stroke="#000000" cx="65.417" cy="-1069.1123" rx="35.9348" ry="35.9348"/>
<text text-anchor="middle" x="65.417" y="-1064.9123" font-family="Times,serif" font-size="14.00" fill="#000000">RVB1</text>
</g>
<!-- HMO1&#45;&#45;RVB1 -->
<g id="edge5" class="edge">
<title>HMO1--RVB1</title>
<path fill="none" stroke="#000000" d="M66.7175,-1140.7102C66.5057,-1129.0512 66.2741,-1116.301 66.0658,-1104.8329"/>
</g>
<!-- SIR4 -->
<g id="node7" class="node">
<title>SIR4</title>
<ellipse fill="#000000" stroke="#000000" cx="62.417" cy="-966.5073" rx="30.777" ry="30.777"/>
<text text-anchor="middle" x="62.417" y="-962.3073" font-family="Times,serif" font-size="14.00" fill="#000000">SIR4</text>
</g>
<!-- RVB1&#45;&#45;SIR4 -->
<g id="edge6" class="edge">
<title>RVB1--SIR4</title>
<path fill="none" stroke="#000000" d="M64.3677,-1033.2261C64.0264,-1021.5525 63.6508,-1008.705 63.321,-997.427"/>
</g>
<!-- SWR1 -->
<g id="node8" class="node">
<title>SWR1</title>
<ellipse fill="#000000" stroke="#000000" cx="55.417" cy="-862.8303" rx="36.5786" ry="36.5786"/>
<text text-anchor="middle" x="55.417" y="-858.6303" font-family="Times,serif" font-size="14.00" fill="#000000">SWR1</text>
</g>
<!-- SIR4&#45;&#45;SWR1 -->
<g id="edge7" class="edge">
<title>SIR4--SWR1</title>
<path fill="none" stroke="#000000" d="M60.3357,-935.6815C59.57,-924.3404 58.6952,-911.3842 57.8978,-899.5733"/>
</g>
<!-- YDR485C -->
<g id="node9" class="node">
<title>YDR485C</title>
<ellipse fill="#000000" stroke="#000000" cx="54.417" cy="-737.6966" rx="52.1906" ry="52.1906"/>
<text text-anchor="middle" x="54.417" y="-733.4966" font-family="Times,serif" font-size="14.00" fill="#000000">YDR485C</text>
</g>
<!-- SWR1&#45;&#45;YDR485C -->
<g id="edge8" class="edge">
<title>SWR1--YDR485C</title>
<path fill="none" stroke="#000000" d="M55.1224,-825.9629C55.0325,-814.7164 54.9319,-802.1291 54.8355,-790.0621"/>
</g>
<!-- INM1 -->
<g id="node10" class="node">
<title>INM1</title>
<ellipse fill="#000000" stroke="#000000" cx="54.417" cy="-614.7163" rx="34.7709" ry="34.7709"/>
<text text-anchor="middle" x="54.417" y="-610.5163" font-family="Times,serif" font-size="14.00" fill="#000000">INM1</text>
</g>
<!-- YDR485C&#45;&#45;INM1 -->
<g id="edge9" class="edge">
<title>YDR485C--INM1</title>
<path fill="none" stroke="#000000" d="M54.417,-685.1852C54.417,-673.1728 54.417,-660.6933 54.417,-649.6337"/>
</g>
<!-- SCP160 -->
<g id="node11" class="node">
<title>SCP160</title>
<ellipse fill="#000000" stroke="#000000" cx="54.417" cy="-501.3824" rx="42.8984" ry="42.8984"/>
<text text-anchor="middle" x="54.417" y="-497.1824" font-family="Times,serif" font-size="14.00" fill="#000000">SCP160</text>
</g>
<!-- INM1&#45;&#45;SCP160 -->
<g id="edge10" class="edge">
<title>INM1--SCP160</title>
<path fill="none" stroke="#000000" d="M54.417,-579.7876C54.417,-568.6009 54.417,-556.0819 54.417,-544.3882"/>
</g>
<!-- ARP4 -->
<g id="node12" class="node">
<title>ARP4</title>
<ellipse fill="#000000" stroke="#000000" cx="54.417" cy="-388.0388" rx="34.7903" ry="34.7903"/>
<text text-anchor="middle" x="54.417" y="-383.8388" font-family="Times,serif" font-size="14.00" fill="#000000">ARP4</text>
</g>
<!-- SCP160&#45;&#45;ARP4 -->
<g id="edge11" class="edge">
<title>SCP160--ARP4</title>
<path fill="none" stroke="#000000" d="M54.417,-458.5321C54.417,-446.7465 54.417,-434.1116 54.417,-422.8401"/>
</g>
<!-- ARP6 -->
<g id="node13" class="node">
<title>ARP6</title>
<ellipse fill="#000000" stroke="#000000" cx="54.417" cy="-282.7492" rx="34.7903" ry="34.7903"/>
<text text-anchor="middle" x="54.417" y="-278.5492" font-family="Times,serif" font-size="14.00" fill="#000000">ARP6</text>
</g>
<!-- ARP4&#45;&#45;ARP6 -->
<g id="edge12" class="edge">
<title>ARP4--ARP6</title>
<path fill="none" stroke="#000000" d="M54.417,-353.2713C54.417,-341.7706 54.417,-328.9782 54.417,-317.4802"/>
</g>
<!-- YML041C -->
<g id="node14" class="node">
<title>YML041C</title>
<ellipse fill="#000000" stroke="#000000" cx="53.417" cy="-158.6873" rx="53.3341" ry="53.3341"/>
<text text-anchor="middle" x="53.417" y="-154.4873" font-family="Times,serif" font-size="14.00" fill="#000000">YML041C</text>
</g>
<!-- ARP6&#45;&#45;YML041C -->
<g id="edge13" class="edge">
<title>ARP6--YML041C</title>
<path fill="none" stroke="#000000" d="M54.1358,-247.8609C54.0468,-236.8239 53.9463,-224.3589 53.8493,-212.3234"/>
</g>
<!-- HTZ1 -->
<g id="node15" class="node">
<title>HTZ1</title>
<ellipse fill="#000000" stroke="#000000" cx="93.417" cy="-34.6352" rx="34.7709" ry="34.7709"/>
<text text-anchor="middle" x="93.417" y="-30.4352" font-family="Times,serif" font-size="14.00" fill="#000000">HTZ1</text>
</g>
<!-- YML041C&#45;&#45;HTZ1 -->
<g id="edge14" class="edge">
<title>YML041C--HTZ1</title>
<path fill="none" stroke="#000000" d="M69.9174,-107.5144C74.2646,-94.0326 78.8394,-79.8448 82.7855,-67.6066"/>
</g>
<!-- HTZ1&#45;&#45;FUN36 -->
<g id="edge15" class="edge">
<title>HTZ1--FUN36</title>
<path fill="none" stroke="#000000" d="M105.0659,-67.3456C108.8843,-79.1641 112.8112,-92.6934 115.417,-105.2704 131.5111,-182.9509 134.417,-203.419 134.417,-282.7492 134.417,-1386.0243 134.417,-1386.0243 134.417,-1386.0243 134.417,-1449.4436 133.8461,-1467.3223 112.417,-1527.0114 107.08,-1541.8771 98.753,-1557.0841 90.706,-1569.9515"/>
</g>
</g>
</svg>